<?xml version="1.0" standalone="no"?>
<!DOCTYPE svg PUBLIC "-//W3C//DTD SVG 20010904//EN"
 "http://www.w3.org/TR/2001/REC-SVG-20010904/DTD/svg10.dtd">
<svg version="1.0" xmlns="http://www.w3.org/2000/svg"
 width="512.000000pt" height="512.000000pt" viewBox="0 0 512.000000 512.000000"
 preserveAspectRatio="xMidYMid meet">
<metadata>
Created by potrace 1.14, written by Peter Selinger 2001-2017
</metadata>
<g transform="translate(0.000000,512.000000) scale(0.100000,-0.100000)"
fill="#000000" stroke="none">
<path d="M4108 5040 c-217 -38 -437 -189 -547 -377 -33 -55 -66 -92 -84 -93
-5 0 -5 5 -1 11 4 7 -1 7 -16 -1 -15 -8 -20 -8 -16 -1 4 6 3 11 -3 11 -5 0
-12 -6 -15 -12 -5 -10 -7 -10 -12 0 -3 6 -10 12 -15 12 -6 0 -7 -5 -3 -11 5
-8 1 -8 -13 0 -11 6 -23 7 -27 4 -11 -11 -80 -9 -88 2 -5 6 -8 4 -8 -5 0 -13
-1 -13 -10 0 -9 13 -11 13 -21 0 -8 -12 -12 -12 -16 -2 -4 10 -8 10 -21 0 -12
-10 -14 -10 -8 0 4 6 3 12 -3 12 -5 0 -12 -6 -14 -12 -4 -10 -8 -10 -15 1 -8
11 -10 11 -15 0 -4 -11 -6 -11 -6 -1 -1 7 -6 10 -12 7 -17 -11 -70 -12 -76 -2
-3 5 -10 3 -15 -4 -7 -11 -11 -11 -15 -1 -2 6 -9 12 -14 12 -6 0 -8 -4 -5 -8
2 -4 -4 -8 -14 -8 -10 0 -16 4 -14 8 3 4 1 8 -5 8 -5 0 -12 -6 -15 -12 -5 -10
-7 -10 -12 0 -3 6 -10 12 -15 12 -6 0 -7 -5 -3 -11 5 -8 1 -8 -13 0 -11 6 -23
7 -27 4 -11 -11 -80 -9 -88 2 -5 6 -8 4 -8 -5 0 -13 -1 -13 -10 0 -9 13 -11
13 -21 0 -8 -12 -12 -12 -16 -2 -4 10 -8 10 -21 0 -12 -10 -14 -10 -8 0 4 6 3
12 -3 12 -5 0 -12 -6 -14 -12 -4 -10 -8 -9 -16 2 -10 13 -11 13 -11 0 0 -11
-2 -12 -8 -3 -5 7 -13 9 -21 3 -8 -4 -24 -4 -37 0 -15 6 -26 5 -30 -1 -4 -8
-9 -7 -15 2 -7 11 -9 11 -9 -1 0 -13 -1 -13 -10 0 -9 13 -11 13 -20 0 -8 -13
-11 -12 -25 5 -9 11 -14 14 -10 8 3 -7 3 -13 -2 -14 -4 0 -18 -2 -30 -3 -12
-1 -20 0 -18 4 2 4 -2 7 -10 7 -8 0 -12 -4 -9 -9 3 -4 0 -8 -5 -8 -6 0 -11 6
-11 13 0 9 -3 8 -9 -2 -7 -11 -9 -11 -14 0 -5 12 -8 11 -17 -1 -9 -11 -13 -12
-17 -2 -2 6 -9 12 -14 12 -6 0 -7 -5 -3 -11 4 -7 -1 -7 -16 1 -15 8 -20 8 -16
1 4 -6 2 -11 -3 -11 -6 0 -11 6 -11 13 0 8 -4 7 -10 -3 -9 -13 -10 -13 -10 0
0 13 -1 13 -10 0 -9 -13 -10 -13 -10 0 0 12 -2 13 -9 1 -7 -11 -9 -11 -14 0
-4 12 -7 11 -16 -1 -9 -13 -12 -12 -26 5 -9 11 -14 14 -10 8 3 -7 3 -13 -2
-14 -4 0 -18 -2 -30 -3 -12 -1 -20 0 -18 4 2 4 -2 7 -10 7 -8 0 -12 -4 -9 -9
3 -4 0 -8 -5 -8 -6 0 -11 6 -11 13 0 9 -3 8 -9 -2 -7 -11 -9 -11 -14 0 -5 12
-8 11 -17 -1 -9 -11 -13 -12 -17 -2 -2 6 -9 12 -14 12 -6 0 -7 -5 -3 -11 4 -7
-1 -7 -16 1 -15 8 -20 8 -16 1 4 -6 2 -11 -3 -11 -6 0 -11 6 -11 13 0 8 -4 7
-10 -3 -7 -11 -10 -11 -10 -2 0 8 -5 10 -12 6 -18 -12 -82 -11 -90 1 -5 6 -8
4 -8 -5 0 -13 -1 -13 -10 0 -9 13 -11 13 -21 0 -8 -12 -12 -12 -16 -2 -4 10
-8 10 -21 0 -12 -10 -14 -10 -8 0 4 6 3 12 -3 12 -5 0 -12 -6 -14 -12 -4 -10
-8 -10 -15 1 -8 11 -10 11 -15 0 -4 -11 -6 -11 -6 -1 -1 7 -6 10 -12 7 -17
-11 -70 -12 -76 -2 -3 5 -10 3 -15 -4 -7 -11 -11 -11 -15 -1 -2 6 -9 12 -14
12 -6 0 -8 -4 -5 -8 2 -4 -4 -8 -14 -8 -10 0 -16 4 -14 8 3 4 1 8 -5 8 -5 0
-12 -6 -15 -12 -5 -10 -7 -10 -12 0 -3 6 -10 12 -15 12 -6 0 -7 -5 -3 -11 5
-8 1 -8 -13 0 -11 6 -23 7 -27 4 -11 -11 -80 -9 -88 2 -5 6 -8 4 -8 -5 0 -13
-1 -13 -10 0 -9 13 -11 13 -21 0 -8 -12 -12 -12 -16 -2 -4 10 -8 10 -21 0 -12
-10 -14 -10 -8 0 4 6 3 12 -3 12 -5 0 -12 -6 -14 -12 -4 -10 -8 -10 -15 1 -8
11 -10 11 -15 0 -4 -11 -6 -11 -6 -1 -1 7 -6 10 -12 7 -17 -11 -70 -12 -76 -2
-3 5 -10 3 -15 -4 -7 -11 -11 -11 -15 -1 -2 6 -9 12 -14 12 -6 0 -8 -4 -5 -8
2 -4 -4 -8 -14 -8 -10 0 -16 4 -14 8 3 4 1 8 -5 8 -5 0 -12 -6 -15 -12 -5 -10
-7 -10 -12 0 -3 6 -10 12 -15 12 -6 0 -7 -5 -3 -11 5 -8 1 -8 -13 0 -11 6 -23
7 -27 4 -11 -11 -80 -9 -88 2 -5 6 -8 4 -8 -5 0 -13 -1 -13 -10 0 -9 13 -11
13 -21 0 -8 -12 -12 -12 -16 -2 -4 10 -8 10 -21 0 -12 -10 -14 -10 -8 0 4 6 3
12 -3 12 -5 0 -12 -6 -14 -12 -4 -10 -8 -9 -16 2 -10 13 -11 13 -11 0 0 -11
-2 -12 -8 -3 -5 7 -13 9 -21 3 -8 -4 -24 -4 -37 0 -15 6 -26 5 -30 -1 -4 -8
-9 -7 -15 2 -7 11 -9 11 -9 -1 0 -13 -1 -13 -10 0 -9 13 -11 13 -21 0 -8 -12
-12 -12 -16 -2 -4 10 -8 10 -21 0 -12 -10 -14 -10 -8 0 4 6 3 12 -3 12 -5 0
-12 -6 -14 -12 -4 -10 -8 -10 -15 1 -8 11 -10 11 -15 0 -5 -12 -6 -12 -6 0 -1
11 -4 11 -16 1 -12 -10 -15 -10 -15 0 0 10 -3 10 -15 0 -12 -10 -15 -10 -15 0
0 10 -3 10 -15 0 -12 -10 -15 -10 -15 1 0 12 -2 12 -9 0 -5 -8 -16 -11 -26 -8
-10 4 -14 3 -10 -4 4 -6 1 -9 -6 -8 -8 2 -25 -3 -37 -10 -13 -7 -26 -10 -29
-7 -3 3 -14 -5 -25 -17 -11 -12 -17 -15 -13 -7 4 8 -3 4 -14 -10 -11 -14 -21
-21 -21 -15 0 5 -7 -1 -16 -13 -8 -12 -22 -22 -30 -22 -8 0 -13 -4 -10 -9 3
-4 -11 -26 -32 -47 -20 -21 -32 -35 -25 -31 10 6 -12 -49 -38 -97 -8 -14 -8
-16 3 -10 7 4 4 -3 -7 -16 -11 -13 -15 -21 -10 -18 7 4 10 -10 10 -38 0 -32
-4 -44 -15 -44 -11 0 -12 -2 -2 -8 8 -6 12 -40 11 -119 -1 -61 1 -116 5 -122
7 -11 0 -15 -18 -12 -5 1 -4 -5 4 -14 18 -22 19 -107 1 -100 -11 4 -11 3 -2
-9 7 -8 11 -32 10 -53 -2 -21 0 -44 5 -51 7 -12 1 -16 -18 -13 -5 1 -4 -5 4
-14 18 -22 19 -107 1 -100 -11 4 -11 3 -2 -9 7 -8 11 -32 10 -53 -2 -21 0 -44
5 -51 7 -12 1 -16 -18 -13 -5 1 -4 -5 4 -14 18 -22 19 -107 1 -100 -11 4 -11
3 -2 -9 7 -8 11 -32 10 -53 -2 -21 0 -44 5 -51 7 -12 1 -16 -18 -13 -5 1 -4
-5 4 -14 18 -22 19 -107 1 -100 -11 4 -11 3 -2 -9 7 -8 11 -32 10 -53 -2 -21
0 -44 5 -51 7 -12 1 -16 -18 -13 -5 1 -4 -5 4 -14 18 -22 19 -107 1 -100 -11
4 -11 3 -2 -9 7 -8 11 -32 10 -53 -2 -21 0 -44 5 -51 7 -12 1 -16 -18 -13 -5
1 -4 -5 4 -14 18 -22 19 -107 1 -100 -11 4 -11 3 -2 -9 7 -8 11 -32 10 -53 -2
-21 0 -44 5 -51 7 -12 1 -16 -18 -13 -5 1 -4 -5 4 -14 18 -22 19 -107 1 -100
-11 4 -11 3 -2 -9 7 -8 11 -32 10 -53 -2 -21 0 -44 5 -51 7 -12 1 -16 -18 -13
-5 1 -4 -5 4 -14 18 -22 19 -107 1 -100 -11 4 -11 3 -2 -9 7 -8 11 -32 10 -53
-2 -21 0 -44 5 -51 7 -12 1 -16 -18 -13 -5 1 -4 -5 4 -14 18 -22 19 -107 1
-100 -11 4 -11 3 -2 -9 7 -8 11 -32 10 -53 -2 -21 0 -44 5 -51 7 -12 1 -16
-18 -13 -5 1 -4 -5 4 -14 18 -22 19 -107 1 -100 -11 4 -11 3 -2 -9 7 -8 11
-32 10 -53 -2 -21 0 -44 5 -51 7 -12 1 -16 -18 -13 -5 1 -4 -5 4 -14 16 -19
20 -107 4 -101 -8 3 -7 -5 2 -23 8 -16 12 -44 10 -65 -4 -26 -2 -35 6 -30 8 5
9 2 5 -9 -4 -10 -1 -17 5 -17 6 0 8 -3 5 -7 -4 -3 -2 -12 4 -20 9 -10 8 -13
-2 -13 -8 -1 -3 -7 11 -15 15 -9 19 -15 10 -15 -12 0 -11 -3 3 -11 9 -6 14
-15 11 -21 -4 -7 -2 -8 5 -4 6 4 14 0 18 -10 8 -22 103 -112 103 -98 0 3 7 -2
16 -10 8 -9 20 -14 25 -11 5 4 9 1 9 -6 0 -7 3 -9 7 -6 3 4 12 -1 20 -11 8 -9
12 -12 9 -6 -3 7 3 9 19 6 14 -2 23 -7 21 -11 -2 -3 12 -6 32 -5 21 0 45 -3
55 -8 11 -6 17 -5 17 3 0 8 4 8 15 -1 12 -10 15 -10 15 0 0 10 3 10 15 0 11
-9 15 -9 15 -1 0 7 5 9 12 5 16 -10 48 -13 48 -4 0 3 9 6 20 6 11 0 20 -3 20
-6 0 -4 7 -7 15 -7 8 0 12 4 9 9 -3 4 0 8 5 8 6 0 11 -4 11 -10 0 -6 9 -6 26
0 14 6 23 7 21 2 -3 -4 19 -7 48 -7 29 0 51 3 48 8 -2 4 1 7 6 7 6 0 11 -4 11
-10 0 -6 9 -6 26 0 14 6 23 7 21 2 -3 -4 17 -7 44 -7 27 0 49 4 49 10 0 5 5 4
11 -2 7 -7 20 -8 34 -3 14 5 27 4 34 -3 8 -8 11 -8 11 2 0 11 3 11 15 1 11 -9
15 -9 15 -1 0 7 5 9 12 5 17 -11 48 -13 48 -3 0 10 34 6 42 -6 5 -7 8 -7 8 0
0 6 13 10 30 11 16 1 28 -2 26 -5 -2 -3 7 -6 20 -6 13 0 24 4 24 9 0 5 7 3 15
-4 11 -9 15 -9 15 -1 0 7 5 9 12 5 17 -11 48 -13 48 -3 0 10 34 6 42 -6 5 -7
8 -7 8 0 0 6 13 10 30 11 16 1 28 -2 26 -5 -2 -3 7 -6 20 -6 13 0 24 4 24 9 0
5 7 3 15 -4 11 -9 15 -9 15 -1 0 7 5 9 13 4 18 -11 38 -13 31 -2 -3 5 0 9 5 9
6 0 11 -4 11 -10 0 -6 9 -6 26 0 14 6 23 7 21 2 -3 -4 19 -7 48 -7 29 0 51 3
48 8 -2 4 1 7 6 7 6 0 11 -4 11 -10 0 -6 9 -6 26 0 14 6 23 6 20 2 -5 -8 95
-5 103 3 2 2 12 0 22 -6 14 -7 19 -6 19 2 0 8 4 8 15 -1 11 -9 15 -9 15 -1 0
7 5 9 12 5 19 -12 48 -12 48 -1 0 5 7 4 15 -3 12 -10 15 -10 15 0 0 10 3 10
15 0 11 -9 15 -9 15 -1 0 7 5 9 12 5 17 -11 48 -13 48 -3 0 10 34 6 42 -6 5
-6 8 -5 8 4 0 11 3 11 15 1 10 -9 15 -9 15 -1 0 6 5 11 11 11 5 0 7 -5 3 -12
-4 -7 -3 -8 4 -4 6 4 27 8 47 10 29 2 35 -1 30 -13 -4 -14 -3 -13 8 1 9 12 18
14 30 7 12 -7 17 -6 17 2 0 8 4 8 15 -1 11 -9 15 -9 15 -1 0 7 5 9 12 5 17
-11 48 -13 48 -3 0 10 34 6 43 -6 4 -6 10 -5 16 4 6 9 11 10 15 2 4 -6 15 -7
29 -2 32 12 70 4 90 -20 9 -12 17 -17 17 -13 0 5 5 1 11 -8 5 -10 15 -18 20
-18 16 0 39 -27 31 -35 -4 -5 -2 -5 5 -1 7 4 20 -1 30 -11 10 -10 31 -26 46
-36 15 -10 25 -22 22 -27 -4 -6 1 -7 11 -3 13 5 16 3 11 -10 -4 -11 -2 -14 9
-10 7 3 14 0 14 -6 0 -6 3 -10 8 -10 19 3 32 -2 32 -14 0 -6 14 -18 30 -26 23
-10 28 -16 20 -26 -8 -9 -4 -11 16 -7 18 3 25 1 20 -6 -7 -12 33 -44 46 -36 4
3 8 -3 8 -12 0 -10 3 -15 6 -11 6 6 29 -11 70 -51 13 -13 24 -20 24 -16 0 3 6
1 14 -6 8 -6 12 -19 9 -28 -4 -14 -3 -14 5 -3 9 12 13 12 26 2 9 -7 13 -17 10
-22 -3 -5 2 -6 10 -3 9 4 18 -1 22 -10 3 -9 12 -16 20 -16 8 0 14 -4 14 -8 0
-5 11 -15 25 -22 14 -7 25 -20 25 -27 0 -8 5 -11 10 -8 6 3 10 1 10 -5 0 -6 5
-8 10 -5 6 3 13 -1 16 -9 3 -9 10 -16 16 -16 15 0 38 -27 30 -35 -4 -4 0 -5 8
-3 8 2 14 -2 13 -9 -2 -7 3 -10 10 -8 6 3 32 -13 56 -35 45 -41 58 -49 45 -27
-6 9 -5 9 7 0 20 -16 79 -18 114 -3 17 7 35 12 40 11 6 -2 7 0 3 4 -10 10 33
55 46 48 7 -4 6 -1 -1 8 -7 9 -8 20 -3 29 5 8 6 18 4 22 -3 4 1 8 8 8 8 0 9 3
3 8 -14 9 -14 45 0 54 6 5 6 8 0 8 -6 0 -10 30 -10 70 0 57 3 69 14 65 11 -4
10 -1 -2 13 -22 24 -22 33 1 25 14 -5 13 -3 -3 10 -14 12 -16 16 -6 17 12 0
12 3 3 12 -16 16 -15 31 1 22 7 -5 6 0 -3 11 -14 17 -13 18 4 11 19 -6 19 -6
3 12 -22 24 -22 33 1 25 14 -5 13 -3 -3 10 -11 9 -15 17 -9 17 7 0 8 17 4 50
-5 41 -4 50 9 50 13 0 14 2 2 9 -8 5 -12 19 -9 35 3 14 0 27 -6 30 -6 2 -2 5
9 5 17 1 18 3 5 12 -12 9 -11 10 8 6 12 -3 22 -2 22 3 0 11 33 7 42 -5 5 -7 8
-7 8 0 0 6 13 10 30 11 16 1 28 -2 26 -5 -2 -3 7 -6 20 -6 13 0 24 4 24 9 0 5
7 3 15 -4 11 -9 15 -9 15 -1 0 7 5 9 12 5 17 -11 48 -13 48 -3 0 10 34 6 42
-6 5 -6 8 -5 8 4 0 11 3 11 15 1 10 -9 15 -9 15 -1 0 6 5 11 11 11 5 0 7 -5 3
-12 -4 -7 -3 -8 4 -4 6 4 27 8 47 10 29 2 35 -1 30 -13 -4 -14 -3 -13 8 1 10
12 17 14 31 6 14 -8 17 -8 11 2 -6 9 -3 9 14 1 14 -8 21 -8 21 -1 0 5 5 10 11
10 5 0 7 -6 3 -13 -6 -9 -5 -9 7 0 12 10 18 10 29 0 10 -10 11 -9 5 2 -6 11
-4 13 8 8 10 -3 17 -2 17 4 0 6 6 9 12 7 7 -3 19 1 26 8 7 7 19 11 27 8 8 -4
15 -1 15 5 0 6 6 11 14 11 8 0 22 7 31 16 8 9 22 13 30 10 9 -3 12 0 8 9 -3 9
3 18 16 23 12 4 28 19 35 32 7 14 18 24 24 23 7 -2 11 0 11 5 -3 20 2 32 13
26 6 -4 8 -3 5 4 -4 5 -4 18 -1 27 6 13 9 14 16 3 7 -9 8 -7 3 8 -6 24 18 77
31 66 4 -4 2 1 -6 11 -12 16 -12 20 1 28 12 7 12 9 -1 9 -12 0 -13 2 -1 9 7 5
10 14 7 20 -4 6 -1 11 6 11 9 0 9 3 -2 10 -13 9 -12 13 5 27 16 12 16 14 3 10
-10 -3 -20 -2 -23 3 -4 6 -2 10 4 10 6 0 7 7 4 17 -4 10 -2 14 4 10 5 -3 10 0
10 8 0 8 -4 12 -9 9 -4 -3 -8 2 -8 11 0 10 5 13 13 9 9 -6 9 -4 -1 8 -10 13
-10 17 0 21 10 4 10 6 1 6 -7 1 -13 8 -13 17 0 9 5 12 13 8 9 -6 9 -4 1 7 -12
17 -12 68 0 88 6 9 5 12 -2 7 -6 -3 -13 -2 -17 4 -3 5 -2 10 4 10 6 0 7 7 4
17 -4 10 -2 14 4 10 5 -3 10 0 10 8 0 8 -4 12 -9 9 -4 -3 -8 2 -8 11 0 10 5
13 13 9 9 -6 9 -4 -1 8 -10 13 -10 17 0 21 10 4 10 6 1 6 -7 1 -13 8 -13 17 0
9 5 12 13 8 9 -6 9 -4 1 7 -6 8 -10 29 -8 47 2 22 -1 30 -9 25 -9 -5 -9 -3 -1
8 6 8 10 31 9 52 -1 21 3 40 7 43 5 3 4 12 -3 20 -9 11 -8 14 2 14 9 0 10 3 4
8 -6 4 -10 14 -10 22 1 8 -3 21 -8 28 -6 7 -6 12 1 12 13 0 11 73 -2 82 -7 5
-6 8 3 8 10 0 11 3 2 14 -7 9 -8 17 -2 20 5 3 8 14 6 24 -1 9 3 23 9 31 8 11
8 13 -1 7 -7 -4 -13 -3 -13 1 0 5 6 15 13 22 8 10 8 12 0 7 -6 -3 -14 -2 -18
4 -3 5 -2 10 4 10 6 0 7 7 4 17 -4 10 -2 14 4 10 5 -3 10 0 10 8 0 8 -4 12 -9
9 -4 -3 -8 2 -8 11 0 10 5 13 13 9 9 -6 9 -4 -1 8 -10 13 -10 17 0 21 10 4 10
6 1 6 -7 1 -13 8 -13 17 0 9 5 12 13 8 9 -6 9 -4 1 7 -6 8 -10 29 -8 47 2 22
-1 30 -9 25 -9 -5 -9 -3 -1 8 6 8 10 31 9 52 -1 21 3 40 7 43 5 3 4 12 -3 20
-9 11 -8 14 2 14 9 0 10 3 4 8 -6 4 -10 14 -10 22 1 8 -3 21 -8 28 -6 7 -6 12
1 12 13 0 11 73 -2 82 -7 5 -6 8 3 8 10 0 11 3 2 14 -7 9 -8 17 -2 20 5 3 8
14 6 24 -1 9 3 23 9 31 8 11 8 13 -1 7 -7 -4 -13 -3 -13 1 0 5 6 15 13 22 8
10 8 12 0 7 -6 -3 -14 -2 -18 4 -3 5 -2 10 4 10 6 0 7 7 4 17 -4 10 -2 14 4
10 5 -3 10 0 10 8 0 8 -4 12 -9 9 -4 -3 -8 2 -8 11 0 10 5 13 13 9 9 -6 9 -4
-1 8 -10 13 -10 17 0 21 10 4 10 6 1 6 -7 1 -13 8 -13 17 0 9 5 12 13 8 9 -6
9 -4 1 7 -6 8 -10 29 -8 47 2 22 -1 30 -9 25 -9 -5 -9 -3 -1 8 6 8 10 31 9 52
-1 21 3 40 7 43 5 3 4 12 -3 20 -9 11 -8 14 2 14 9 0 10 3 4 8 -6 4 -10 14
-10 22 1 8 -3 21 -8 28 -6 7 -6 12 1 12 13 0 11 73 -2 82 -7 5 -6 8 3 8 10 0
11 3 2 14 -7 9 -8 17 -2 20 5 3 8 14 6 24 -1 9 3 23 9 31 8 11 8 13 -1 7 -7
-4 -13 -3 -13 1 0 5 6 15 13 22 8 10 8 12 0 7 -6 -3 -14 -2 -18 4 -3 5 -2 10
4 10 6 0 7 7 4 17 -4 11 -3 14 5 9 8 -5 10 -2 6 9 -4 10 9 30 38 58 60 58 110
122 146 187 35 62 79 174 87 220 3 16 8 45 11 63 8 47 8 163 -1 227 -35 272
-219 519 -473 633 -126 56 -334 81 -474 57z"/>
</g>
</svg>
